<?xml version="1.0" encoding="utf-8"?>
<!-- Generator: Adobe Illustrator 16.0.0, SVG Export Plug-In . SVG Version: 6.00 Build 0)  -->
<!DOCTYPE svg PUBLIC "-//W3C//DTD SVG 1.1//EN" "http://www.w3.org/Graphics/SVG/1.1/DTD/svg11.dtd">
<svg version="1.1" id="图层_1" xmlns="http://www.w3.org/2000/svg" xmlns:xlink="http://www.w3.org/1999/xlink" x="0px" y="0px"
	 width="200px" height="200px" viewBox="0 0 200 200" enable-background="new 0 0 200 200" xml:space="preserve">
<path fill="#15A9CE" d="M40.108,169.881c2.552-1.254,5.637-0.205,6.907,2.344c1.256,2.549,0.205,5.628-2.348,6.882l-26.973,13.259
	l-0.232,0.109c-1.256,0.6-2.894,1.09-4.45,1.131h-0.15c-1.474,0.014-2.949-0.34-4.245-1.226c-1.516-1.036-2.594-2.589-2.935-4.798
	c-0.205-1.457-0.027-3.256,0.737-5.478H6.406l9.596-28.577c-4.9-7.549-8.818-15.822-11.548-24.625
	c-2.894-9.334-4.45-19.215-4.45-29.421c0-27.474,11.152-52.344,29.184-70.346C47.22,11.134,72.131,0,99.65,0
	c27.504,0,52.417,11.134,70.449,29.136c18.032,18.001,29.185,42.872,29.185,70.345c0,27.459-11.152,52.33-29.185,70.332
	s-42.944,29.135-70.449,29.135c-6.02,0-11.971-0.559-17.841-1.607c-5.965-1.076-11.725-2.671-17.212-4.742
	c-2.662-0.996-4-3.967-3.003-6.623c1.01-2.658,3.986-4.008,6.647-2.998c4.969,1.866,10.115,3.297,15.384,4.252
	c5.119,0.926,10.483,1.402,16.025,1.402c24.652,0,46.983-9.975,63.146-26.109c16.161-16.135,26.153-38.43,26.153-63.041
	c0-24.625-9.992-46.92-26.153-63.055c-16.162-16.134-38.493-26.11-63.146-26.11c-24.666,0-46.997,9.976-63.159,26.11
	c-16.162,16.135-26.153,38.43-26.153,63.055c0,9.212,1.392,18.083,3.958,26.396c2.648,8.504,6.539,16.49,11.48,23.726
	c1.146,1.472,1.419,3.476,0.655,5.22l-8.763,26.082L40.108,169.881z"/>
<path fill="#0B5567" d="M80.396,106.203c-2.673-2.578-13.325-8.24-9.768-17.256c3.288-8.356,9.441-12.079,9.768-25.903
	c0.308-12.506-6.961-18.575-13.037-14.387c-5.615,3.878,0,8.647,0,8.647s4.711,7.213-3.25,20.126
	c-7.961,12.914-8.153,20.687,3.25,31.642C78.78,120.047,83.068,108.781,80.396,106.203"/>
<path fill="#0B5567" d="M154.618,108.815c-5.922-0.95-3.634,3.199-2.749,7.038c0.903,3.819-2.288,21.076-52.226,21.076v-0.058
	c-49.937,0-53.129-17.314-52.225-21.154c0.884-3.839,3.172-8.008-2.75-7.039c-5.922,0.97-10.999,5.584-10.999,16.442
	c0,9.772,20.902,26.538,65.974,26.538c45.072,0,65.974-16.708,65.974-26.44C165.617,114.381,160.541,109.784,154.618,108.815"/>
<path fill="#0B5567" d="M108.894,106.203c-2.674-2.578-13.326-8.24-9.769-17.256c3.307-8.356,9.441-12.079,9.769-25.903
	c0.307-12.506-6.943-18.575-13.02-14.387c-5.614,3.878,0,8.647,0,8.647s4.692,7.213-3.269,20.126
	c-7.96,12.914-8.134,20.687,3.269,31.642C107.277,120.047,111.585,108.781,108.894,106.203"/>
<path fill="#0B5567" d="M137.408,106.203c-2.673-2.578-13.345-8.24-9.769-17.256c3.289-8.356,9.423-12.079,9.769-25.903
	c0.309-12.506-6.96-18.575-13.036-14.387c-5.615,3.878,0,8.647,0,8.647s4.71,7.213-3.25,20.126
	c-7.962,12.914-8.152,20.687,3.25,31.642C135.773,120.047,140.081,108.781,137.408,106.203z"/>
</svg>
